<svg xmlns="http://www.w3.org/2000/svg" version="1.0" width="245.000000pt" height="232.000000pt" viewBox="0 0 245.000000 232.000000" preserveAspectRatio="xMidYMid meet">

<g transform="translate(0.000000,232.000000) scale(0.100000,-0.100000)" fill="#ffffff" stroke="none">
<path d="M370 2058 c-60 -30 -106 -93 -120 -164 -34 -165 82 -429 263 -600 68 -64 71 -66 111 -60 60 8 189 52 289 98 67 32 89 47 93 65 15 59 -65 274 -150 402 -98 147 -290 280 -406 281 -20 0 -56 -10 -80 -22z" fill="#ffffff"/>
<path d="M1845 2062 c-105 -37 -248 -154 -321 -263 -85 -128 -166 -342 -151 -400 5 -21 24 -34 94 -67 100 -46 229 -90 289 -98 39 -6 43 -4 104 52 148 138 259 341 276 509 12 115 -43 226 -130 266 -51 23 -97 23 -161 1z" fill="#ffffff"/>
<path d="M693 1210 c-26 -11 -43 -40 -43 -74 0 -19 -5 -26 -20 -26 -16 0 -20 -7 -20 -35 0 -28 4 -35 20 -35 19 0 20 -7 20 -115 l0 -115 40 0 40 0 0 114 0 115 33 3 c28 3 32 7 35 36 3 31 2 32 -32 32 -23 0 -36 5 -36 13 0 19 21 37 42 37 13 0 18 8 18 30 0 28 -2 30 -37 29 -21 0 -48 -4 -60 -9z" fill="#ffffff"/>
<path d="M942 1109 c-85 -18 -128 -127 -88 -224 30 -71 140 -99 212 -54 40 24 41 30 13 55 -16 15 -24 16 -39 6 -29 -18 -84 -15 -103 6 -10 10 -17 22 -17 25 0 4 43 7 95 7 l95 0 0 35 c0 100 -75 164 -168 144z m78 -90 c15 -28 11 -31 -48 -27 -47 3 -49 4 -41 26 12 31 73 32 89 1z" fill="#ffffff"/>
<path d="M1170 905 l0 -205 40 0 40 0 0 65 c0 62 1 65 19 55 29 -15 93 -12 119 6 34 24 52 68 52 129 0 65 -19 116 -51 139 -30 21 -97 21 -121 -1 -17 -15 -18 -15 -18 0 0 13 -9 17 -40 17 l-40 0 0 -205z m171 118 c8 -9 14 -37 14 -63 0 -53 -17 -80 -51 -80 -30 0 -54 35 -54 80 0 66 56 106 91 63z" fill="#ffffff"/>
<path d="M1521 1084 c-43 -36 -41 -61 4 -66 22 -3 40 1 47 9 7 9 26 13 47 11 29 -2 37 -8 39 -25 3 -20 -1 -23 -35 -23 -57 0 -110 -18 -128 -43 -25 -35 -19 -92 11 -116 29 -23 101 -29 135 -11 13 7 19 7 19 0 0 -5 18 -10 40 -10 l40 0 0 116 c0 63 -5 124 -10 135 -17 30 -64 49 -124 49 -44 0 -60 -5 -85 -26z m139 -168 c0 -32 -22 -48 -62 -44 -66 6 -40 68 29 68 28 0 33 -4 33 -24z" fill="#ffffff"/>
<path d="M1085 625 c-14 -13 -25 -31 -25 -38 0 -17 71 -106 95 -120 39 -21 135 66 135 124 0 42 -32 59 -113 59 -59 0 -71 -3 -92 -25z" fill="#ffffff"/>
<path d="M987 454 c-22 -22 7 -92 48 -114 34 -18 86 -16 118 5 24 15 27 15 51 0 57 -38 135 -13 162 50 27 66 -12 91 -43 28 -15 -33 -23 -38 -56 -41 -33 -3 -39 1 -55 27 -22 39 -57 42 -66 6 -7 -28 -41 -41 -81 -31 -17 4 -27 16 -33 39 -8 30 -30 46 -45 31z" fill="#ffffff"/>
</g>
</svg>